PathFileType	4	(X/Y/Z)	1_coords_data.trc
DataRate	CameraRate	NumFrames	NumMarkers	Units	OrigDataRate	OrigDataStartFrame	OrigNumFrames
30.0	30.0	6	21	m	30.0	41	51
Frame#	Time	THUMB_TIP	THUMB_IP	THUMB_MCP	THUMB_CMC	INDEX_TIP	INDEX_DIP	INDEX_PIP	INDEX_MCP	MIDDLE_TIP	MIDDLE_DIP	MIDDLE_PIP	MIDDLE_MCP	RING_TIP	RING_DIP	RING_PIP	RING_MCP	PINKY_TIP	PINKY_DIP	PINKY_PIP	PINKY_MCP	WRIST
X1	Y1	Z1	X2	Y2	Z2	X3	Y3	Z3	X4	Y4	Z4	X5	Y5	Z5	X6	Y6	Z6	X7	Y7	Z7	X8	Y8	Z8	X9	Y9	Z9	X10	Y10	Z10	X11	Y11	Z11	X12	Y12	Z12	X13	Y13	Z13	X14	Y14	Z14	X15	Y15	Z15	X16	Y16	Z16	X17	Y17	Z17	X18	Y18	Z18	X19	Y19	Z19	X20	Y20	Z20	X21	Y21	Z21
40	1.3333333333333333	0.022795099258422852	-0.017915300369262695	0.9268889770507812	0.00859296989440918	-0.010890000343322754	0.9477230224609375	-0.007769010066986084	-0.008599989891052246	0.973135986328125	-0.01905699920654297	0.014945899963378906	0.9916939697265625	0.038861598968505856	0.00946382999420166	0.89660498046875	0.01742180061340332	0.006982789993286133	0.8989990234375	-0.004301899909973143	0.004448740005493164	0.9061019897460938	-0.028130199432373045	0.002279560089111328	0.9352000122070312	0.047861801147460935	0.03101300048828125	0.8915230102539062	0.02572760009765625	0.031159000396728517	0.894969970703125	-0.001207389950752258	0.029813899993896484	0.9034340209960937	-0.03139080047607422	0.026499799728393555	0.9310390014648438	0.04611949920654297	0.047924800872802736	0.9031380004882813	0.025463300704956053	0.05050180053710938	0.90622802734375	0.0005238850116729731	0.05143270111083984	0.9134010009765625	-0.028001399993896486	0.04663809967041015	0.9374349975585937	0.035939998626708984	0.07302210235595703	0.9288060302734376	0.018043899536132814	0.07320059967041016	0.9311220092773438	0.000493856996297836	0.0711156997680664	0.9354219970703125	-0.02157390022277832	0.06350849914550781	0.9485809936523437	-0.044970401763916014	0.0352151985168457	1.006760009765625
41	1.3666666666666667	0.023847299575805662	-0.017534700393676758	0.9275850219726562	0.009587980270385743	-0.010712300300598145	0.94843798828125	-0.006791890144348145	-0.008455349922180175	0.9739119873046875	-0.01802199935913086	0.01509879970550537	0.9923259887695313	0.03965670013427734	0.008996339797973632	0.897677978515625	0.018252599716186525	0.006522429943084717	0.8997329711914063	-0.003495820045471191	0.00392615008354187	0.9069299926757812	-0.027491500854492187	0.0018885500431060792	0.9362109985351562	0.048860500335693356	0.030210399627685548	0.8930020141601562	0.026621000289916992	0.030443199157714845	0.8961790161132812	-0.00038988301157951306	0.029162700653076173	0.9041240234375	-0.030807199478149413	0.026052900314331055	0.9315960083007813	0.047069000244140624	0.047094898223876955	0.9047340087890625	0.02637540054321289	0.049785099029541015	0.9073369750976562	0.0012608000040054321	0.05088169860839844	0.9142139892578125	-0.027488899230957032	0.046306598663330076	0.9380360107421875	0.03687760162353516	0.07221540069580078	0.9295399780273438	0.018888599395751954	0.07254830169677734	0.9316060180664063	0.001314110040664672	0.07055909729003906	0.936052978515625	-0.021069499969482423	0.06319549942016602	0.9488989868164063	-0.044305198669433596	0.03551259994506836	1.0071099853515626
42	1.4	0.024298799514770507	-0.017482900619506837	0.9280449829101562	0.010046899795532227	-0.010787599563598633	0.9490040283203125	-0.00637716007232666	-0.008430170059204102	0.9745339965820312	-0.017532400131225586	0.015082200050354004	0.9929630126953125	0.04041389846801758	0.008458270072937011	0.8986539916992188	0.018975000381469726	0.006051139831542969	0.9006599731445313	-0.002810400009155273	0.0036204700469970705	0.907541015625	-0.02701919937133789	0.0017505300045013421	0.9366279907226562	0.04977840042114258	0.029392799377441405	0.8943569946289063	0.027625600814819337	0.029848100662231446	0.8971270141601563	0.00045173001289367605	0.028740299224853515	0.9047449951171875	-0.030135900497436523	0.025853599548339844	0.9320139770507813	0.04808420181274414	0.04613010025024414	0.9062490234375	0.02751230049133301	0.049050201416015626	0.9083740234375	0.002325030088424682	0.05036080169677734	0.9148270263671875	-0.026727500915527343	0.04610900115966797	0.9383040161132813	0.03781980133056641	0.07107369995117188	0.929968017578125	0.019796300888061523	0.0717300033569336	0.9318400268554687	0.002107959985733032	0.06996869659423828	0.9361909790039062	-0.02041069984436035	0.06304280090332032	0.9491530151367188	-0.04352579879760742	0.03533499908447266	1.0078099975585937
43	1.4333333333333333	0.02471139907836914	-0.017268699645996095	0.9282849731445313	0.010397899627685546	-0.010727899551391602	0.9491829833984375	-0.006021039962768555	-0.00835910987854004	0.974677978515625	-0.01711669921875	0.015218099594116212	0.993177978515625	0.040122100830078125	0.008278149604797364	0.8981909790039062	0.01876609992980957	0.005917140007019043	0.9003660278320312	-0.002838789939880371	0.003519309997558593	0.9073489990234375	-0.02665500068664551	0.001774839997291565	0.9367119750976562	0.049608299255371094	0.029374399185180665	0.8939180297851562	0.02745919990539551	0.029844699859619142	0.89689599609375	0.00043146100640296904	0.028725900650024415	0.90481201171875	-0.03002820014953613	0.025817800521850585	0.9322479858398437	0.048086299896240234	0.04600630187988281	0.9063690185546875	0.027535600662231444	0.048956001281738284	0.9084320068359375	0.002368370056152343	0.05029790115356445	0.9148560180664063	-0.026569299697875977	0.04607149887084961	0.9386309814453125	0.038046600341796875	0.07062220001220704	0.9302579956054687	0.020076799392700195	0.07139119720458985	0.9320009765625	0.002393290042877197	0.0697697982788086	0.9363389892578124	-0.02004450035095215	0.06304990005493163	0.9494169921875	-0.043024600982666014	0.035332401275634764	1.008260009765625
44	1.4666666666666666	0.024765600204467775	-0.01696369934082031	0.928052001953125	0.010527099609375	-0.010499899864196777	0.9490139770507813	-0.005787099838256836	-0.008189640045166015	0.9745549926757813	-0.016912700653076172	0.015325599670410157	0.9932150268554687	0.039497501373291014	0.008350419998168945	0.8972849731445313	0.01815730094909668	0.0060130000114440914	0.8996810302734375	-0.003340169906616211	0.0036633601188659666	0.9070640258789062	-0.02667989921569824	0.0019550199508666993	0.936781005859375	0.04893119812011719	0.02965329933166504	0.8928319702148437	0.026803800582885742	0.030055700302124025	0.8961430053710937	-0.000118998996913433	0.028950599670410155	0.9044450073242187	-0.03010110092163086	0.02601969909667969	0.932489013671875	0.047919601440429685	0.04615570068359375	0.9060679931640625	0.02737339973449707	0.049111099243164064	0.90822802734375	0.0022774899005889894	0.05050659942626953	0.9146859741210938	-0.026562999725341797	0.04621279907226562	0.9387020263671875	0.03860020065307617	0.07055690002441406	0.9313930053710937	0.020674800872802733	0.07141069793701171	0.9329949951171875	0.0028972699642181394	0.06990660095214844	0.9369329833984374	-0.019810600280761717	0.06312360000610352	0.949489990234375	-0.04267539978027344	0.035471500396728514	1.0081400146484376
45	1.5	0.024363000869750975	-0.016606599807739257	0.9275059814453125	0.010114299774169921	-0.010290499687194823	0.9486790161132812	-0.006055449962615967	-0.008125740051269531	0.9742100219726563	-0.01685759925842285	0.015409199714660645	0.993208984375	0.0390452995300293	0.008580320358276368	0.8966829833984375	0.017676799774169923	0.006307600021362304	0.89914599609375	-0.003872730016708374	0.0040440201759338375	0.9069550170898437	-0.02698110008239746	0.002351550102233886	0.9365650024414063	0.04716370010375977	0.030153099060058593	0.8899359741210937	0.025153499603271484	0.030552000045776368	0.8940960083007813	-0.0013623199462890622	0.029356199264526366	0.9034660034179688	-0.030322999954223634	0.026417200088500976	0.9325419921875	0.04729359817504883	0.04625410079956055	0.90489599609375	0.02683970069885254	0.04923860168457031	0.907447998046875	0.001741140007972717	0.05066809844970703	0.9144130249023438	-0.026564599990844727	0.04647520065307617	0.9387570190429687	0.03903020095825195	0.07010790252685548	0.9318809814453125	0.02113290023803711	0.0711759033203125	0.9333250122070312	0.003306989908218384	0.06989209747314454	0.9371890258789063	-0.019764299392700194	0.06327939987182617	0.949572998046875	-0.04280289840698242	0.03578850173950195	1.0081199951171875
